<svg height="703" viewBox="0 0 1068 703" width="1068" xmlns="http://www.w3.org/2000/svg" xmlns:xlink="http://www.w3.org/1999/xlink"><defs><linearGradient id="a" x1="50%" x2="50%" y1="2.131503%" y2="50%"><stop offset="0" stop-color="#fff" stop-opacity="0"/><stop offset="1" stop-opacity=".1"/></linearGradient><path id="b" d="m123.98807 62.7595319c-8.575198-7.7130875 7.514878-15.5983674 28.845873-15.2260335s34.87189 7.512946 26.296691 15.2260335z"/></defs><g fill="none" fill-rule="evenodd"><path d="m534 702.18c294.920056 0 534-10.521308 534-23.5v-13.179224c-233.519457-6.880517-411.519457-10.320776-534-10.320776-128.092903 0-306.092903 3.440259-534 10.320776v12.555576c0 12.978692 239.079944 24.123648 534 24.123648z" fill="#42465f"/><ellipse cx="534" cy="665.68" fill="#4c526d" rx="534" ry="23.5"/><g transform="translate(240.243581 101.820918)"><path d="m676.211283 27.1967191v522.7488569c.000001 8.807132-5.334096 11.948153-11.916534 11.953256h-651.7756953c-6.5851353 0-11.92344222-4.14696-11.92344222-11.953256v-522.7488569z" fill="#fff"/><path d="m112.188382 21.7263277v540.1725043h-98.6525656c-6.40735245 0-12.94020492-3.037031-12.94020492-11.928957v-528.1974031z" fill="#d7d9e1"/><path d="m676.211283 6.16271614v21.03400296h-675.61567152v-22.03400296c0-3.35814371 2.64750332-4.87614535 5.91336417-4.87614535h663.78894335c3.265861 0 5.913364 2.46640492 5.913364 5.87614535z" fill="#ededf4"/><circle cx="13.046576" cy="13.53279" fill="#fa5959" opacity=".8" r="3.213152"/><circle cx="23.882744" cy="13.53279" fill="#fed253" opacity=".8" r="3.213152"/><circle cx="34.718912" cy="13.53279" fill="#8ccf4d" opacity=".8" r="3.213152"/><g fill="#ededf4"><path d="m202.681583 66.702423h75.509073v8.03288h-75.509073z"/><path d="m202.681583 89.997776h404.136068v8.03288h-404.136068z"/><path d="m202.681583 113.293128h404.136068v8.03288h-404.136068z"/><path d="m202.681583 136.58848h404.136068v8.03288h-404.136068z"/><path d="m202.681583 159.883832h404.136068v8.03288h-404.136068z"/><path d="m202.681583 184.591662h404.136068v8.03288h-404.136068z"/><path d="m202.681583 207.887014h404.136068v8.03288h-404.136068z"/><path d="m202.681583 231.883832h404.136068v8.03288h-404.136068z"/><path d="m202.681583 256.591662h404.136068v8.03288h-404.136068z"/><path d="m202.681583 279.887014h404.136068v8.03288h-404.136068z"/></g><path d="m597.335526 349.918123c-.131869.139515-.242313.297209-.32784.468093l-4.043355 8.18779c-.329372.673258-1.045479 1.078587-1.803118 1.020597l-1.295747-.099758c-.770591-.053922-1.425098-.574798-1.639198-1.304521l-1.248912-4.251206c-.223688-.763026-.925087-1.295161-1.732594-1.314481-.807508-.019319-1.534407.478645-1.795585 1.230071l-2.099735 6.046841c-.254795.739873-.96172 1.237159-1.756283 1.235458h-8.016459c-.908719-.003555-1.681451-.652837-1.826535-1.534731l-2.263654-13.927685c-.123368-.781574-.746426-1.395153-1.541234-1.517789-.794808-.122635-1.579115.273795-1.940111.980633l-11.607083 22.52218c-.242245.471794-.681269.81666-1.202805.944839-.521535.128178-1.073993.026988-1.51358-.277231l-6.900243-4.788361c-.779577-.538062-1.846279-.412355-2.474408.291599l-2.614911 2.969704c-.077136.087734-.145125.182851-.202949.283926l-6.9783 11.871145c-.361641.621647-1.063188.974016-1.787506.897818l-4.254109-.414378c-.297209-.028448-.597022.013658-.874239.122779l-3.809184 1.496363c-.915779.339601-1.94216-.080824-2.341712-.959207l-.83521-1.880046c-.308143-.689054-1.014738-1.121682-1.779701-1.089659l-4.355583.199515c-.545937.022742-1.052842.284577-1.38161.71365l-1.233301 1.580773c-.413432.531119-1.090027.796312-1.761761.690525-.671734-.105788-1.230208-.565484-1.45419-1.196986l-1.561141-4.335616c-.195294-.54713-.644268-.969918-1.208697-1.138201s-1.176653-.06189-1.64819.286425l-7.41542 5.463643-8.19599 6.499587c-.57227.451735-1.361426.529916-2.013872.199515l-6.361649-3.245957c-.341421-.171964-.728467-.236274-1.10841-.184167l-12.887219 1.772614c-.76499.101474-1.386445.657431-1.561141 1.396605l-2.287071 9.768564c-.14502.619874-.60892 1.120224-1.223356 1.319479-.614436.199256-1.290115.068459-1.781841-.344925-.433899-.363826-1.013738-.511575-1.572779-.40076s-1.035333.467915-1.291914.968611l-1.756284 3.460819c-.267216.518577-.767799.882684-1.350387.982228l-3.988715.65226c-.256998.044025-.501683.140766-.718125.283926l-6.283592 4.113079c-.302284.199864-.658257.306719-1.022548.306946h-2.94275c-.739297.001344-1.408422-.430152-1.701644-1.097332l-.780571-1.834004c-.200847-.449124-.577752-.799423-1.045151-.971371-.467398-.171948-.985636-.150958-1.437063.058206l-6.822186 3.138525c-.558484.257762-1.210703.226134-1.740672-.08441l-3.122282-1.849351c-.28779-.169573-.616774-.259706-.952296-.260905h-6.892437c-.36415.001147-.719857.107923-1.022547.306947l-6.876826 4.489088c-.538922.351758-1.2256.401224-1.810924.130452l-3.122282-1.450321c-.747412-.343345-1.635756-.158666-2.177791.452746l-1.483084 1.665183c-.393721.447784-.98518.678165-1.584025.617s-1.129496-.406157-1.421172-.923946l-.444925-.767365c-.243672-.428291-.653063-.741597-1.135188-.86876-.482125-.127162-.996063-.057387-1.425083.193478l-5.409353 3.153872c-.570391.321927-1.271757.321927-1.842147 0l-2.232431-1.220111c-.511091-.283045-1.129058-.308715-1.662615-.069063l-2.123152.951534c-.482914.212838-1.035057.214025-1.518913.003266-.483857-.210759-.85389-.613629-1.017941-1.108273l-1.373804-4.020995c-.240488-.757736-.956689-1.27178-1.764089-1.266154h-1.998261c-.314476.001189-.623846-.078151-.897656-.230209l-7.673008-4.136101c-.637944-.338972-1.418207-.282041-1.99826.1458l-5.627913 4.143774c-.319652.23569-.708845.362328-1.10841.360662h-7.079775c-.364291.000226-.720263.107082-1.022547.306946l-1.32697.867123c-.441595.290993-.989189.381159-1.503133.247503s-.944559-.478215-1.182029-.945806l-.320034-.621566c-.309806-.620402-.951788-1.013365-1.65481-1.012922h-3.551595c-.571344.001108-1.110111.261686-1.459667.705976l-2.201209 2.77019c-.370245.466185-.947963.726258-1.548866.697255-.600902-.029002-1.149928-.343457-1.471942-.843055l-.624456-.959207c-.535753-.835828-1.654061-1.095312-2.513437-.583198l-1.826535 1.074312c-.635527.373503-1.435984.340338-2.037289-.08441l-7.360779-5.241107c-.131636-.091472-.272963-.168659-.421508-.23021l-5.752805-2.171644c-.930529-.332901-1.962702.113573-2.341711 1.012922l-4.004327 9.59207c-.058.134921-.097378.276864-.117085.422051l-1.295747 8.640536c-.057225.36553-.225985.705368-.483954.974555l-2.739803 2.892968c-.584168.606794-1.511667.748771-2.255848.345314l-4.753674-2.593695c-.478804-.263554-1.051917-.304537-1.564476-.111873-.51256.192663-.911662.599086-1.089464 1.109448l-3.013002 8.663557c-.06829.189716-.102623.389631-.101474.590872v5.463643c-.001746.724002-.440156 1.378027-1.116216 1.665183l-4.831731 2.102582c-.544592.230683-1.168665.190733-1.678227-.107432l-3.637458-2.102581c-.362486-.208679-.786421-.289867-1.202079-.23021l-6.377261.897818c-.74618.104878-1.482073-.247725-1.857757-.890144l-1.077188-1.810983c-.232493-.390546-.605847-.680889-1.045964-.813407l-2.895917-.890145c-.689605-.21581-1.443861-.014676-1.928009.514135l-4.019938 4.389331c-.31711.344295-.754838.558086-1.225495.598546l-5.932336.491114c-.275003.015223-.542457.094102-.78057.230209l-10.342559 5.847326c-.66054.368602-1.482796.304785-2.076318-.161147l-2.934945-2.302097c-.328745-.256467-.735568-.396987-1.155244-.39903h-11.115324c-.562397.002011-1.094652-.249715-1.444055-.682955l-2.802248-3.437798c-.339907-.415879-.848417-.664063-1.390883-.678835-.542466-.014773-1.064172.205356-1.426977.602099l-3.372064 3.683354c-.305204.332696-.474755.764432-.476148 1.212438v45.765682c0 1.004417.828252 1.818657 1.849952 1.818657h401.002472c.491994.000004.963723-.192657 1.310882-.535382.347158-.342726.541146-.807282.53907-1.290948l-.109279-144.517958c.011165-.74893-.443952-1.42864-1.148107-1.714676-.704154-.286037-1.51458-.120407-2.044427.417828z" fill="#d3e8e1"/><path d="m597.452629 410.280623c-.212049.134135-.399262.299964-.554204.490904l-3.754537 4.652592c-.461895.55929-1.182407.875632-1.935811.849923l-1.225493-.058616c-.857618-.040187-1.619582-.526429-1.97484-1.26023l-.780569-1.560633c-.355775-.747952-1.135279-1.239576-2.007466-1.266086s-1.683941.416748-2.090521 1.141528l-1.561138 2.80621c-.397034.701489-1.175433 1.138753-2.021674 1.135672h-7.743244c-1.05081.0044-1.967663-.668335-2.216816-1.626576l-1.857754-6.982552c-.210909-.793927-.884281-1.40628-1.736345-1.578999-.852063-.17272-1.734634.124231-2.27578.765711l-11.162136 13.247067c-.647956.775208-1.777418 1.032682-2.731992.622788l-7.173429-3.040671c-.765336-.336151-1.665771-.248813-2.341707.227135l-2.568072 1.780441c-.122822.086035-.235359.1843-.335644.293076l-6.775339 7.041168c-.46164.496755-1.140821.766891-1.842143.732692l-4.425826-.263769c-.241141-.013576-.483098.006173-.718124.058615l-3.988707.959826c-.931882.228381-1.916116-.117701-2.458792-.864576l-.45273-.630115c-.439863-.601173-1.174791-.951617-1.951423-.930518l-4.449243.124557c-.513392.008029-1.007641.184272-1.397219.498231l-1.092796.857249c-.523962.412865-1.217306.583888-1.889812.466148-.672505-.11774-1.253549-.511879-1.58372-1.074282l-1.155242-1.963614c-.584716-.996501-1.896076-1.391811-2.98958-.901211l-7.485656 3.377709-8.281837 4.015151c-.545934.263586-1.182287.308517-1.764086.124557l-6.595808-2.051537c-.296666-.091496-.609832-.126372-.921071-.102576l-12.770109 1.018441c-.883554.085803-1.639322.63347-1.951423 1.414095l-1.849948 4.85042c-.226139.589803-.715609 1.05737-1.339896 1.279936-.624287.222565-1.321023.177895-1.907271-.122283l-.078057-.036635c-.979531-.510017-2.208924-.273621-2.895911.556846l-1.451858 1.743806c-.385535.453981-.946756.746354-1.561138.813288l-3.996513.40298c-.225336.021258-.446195.073086-.655678.153866l-6.330415 2.54244c-.284844.109973-.58966.167197-.897654.168519h-3.044219c-.756104-.0003-1.463185-.351354-1.888977-.937845l-.437119-.600808c-.56255-.770662-1.591475-1.111363-2.544655-.842595l-7.095372 2.014902c-.486767.137563-1.008417.119524-1.483081-.051288l-3.294001-1.186961c-.248832-.092042-.513164-.141666-.780569-.146538h-7.071955c-.306446-.000377-.609576.059525-.889849.175846l-7.025121 2.798882c-.493665.200057-1.047077.228627-1.561138.080596l-3.473532-.97448c-.685664-.191965-1.427481-.072752-2.006062.322385l-1.52211 1.047749c-.955344.655908-2.285997.519245-3.067636-.315057l-.226365-.241789c-.628637-.673583-1.63667-.910134-2.529043-.59348l-5.659125 2.029556c-.504156.172497-1.056983.172497-1.561138 0l-2.48221-.835269c-.453295-.146971-.943735-.159759-1.405024-.036634l-2.341707.637442c-1.05794.286354-2.183087-.175513-2.677352-1.099038l-.874237-1.648556c-.388648-.726037-1.179462-1.185021-2.045091-1.186961h-2.029479c-.265501.0042-.529718-.035482-.780569-.117231l-7.875941-2.593728c-.571794-.192033-1.20181-.160352-1.748475.087923l-5.752793 2.593728c-.309872.138128-.64829.210665-.991323.212481h-7.267097c-.307995.001322-.61281.058546-.897654.168519l-1.483081.600807c-.953856.379874-2.06058.112658-2.700769-.652095-.432246-.522924-1.097997-.828619-1.803114-.827942h-3.668675c-.528857-.000654-1.041724.170169-1.451858.483577l-2.130953 1.641229c-.90809.705881-2.240581.642229-3.067636-.146538l-.483953-.454269c-.638802-.603631-1.597107-.796182-2.443181-.490904l-2.123148.769327c-.580626.203236-1.223401.182159-1.787503-.058616l-7.470045-3.253151c-.131867-.059146-.270735-.103416-.413702-.131885l-5.862073-1.355479c-.948166-.22241-1.941602.14941-2.466598.923191l-3.684285 5.392612c-.140907.207137-.243808.434989-.304422.674076l-1.116214 4.579323c-.133662.522927-.466915.981718-.936683 1.289538l-2.435375 1.56796c-.601407.389061-1.365856.481825-2.052896.249115l-5.011253-1.670537c-1.083821-.359244-2.283319.092381-2.802243 1.055076l-2.638323 4.630612c-.173469.312219-.264488.658988-.265394 1.011115v2.088171c-.004147.963532-.689472 1.807289-1.678223 2.066191l-4.386798 1.142999c-.465398.123637-.960867.103081-1.41283-.058615l-3.824788-1.35548c-.322925-.116681-.670187-.161814-1.014739-.131884l-6.595808.564172c-.712726.064956-1.416165-.190466-1.896783-.68873l-.780569-.813288c-.325028-.342127-.761316-.573935-1.241105-.659422l-3.00519-.5715c-.620538-.110514-1.262322.018954-1.779697.359019l-3.957485 2.645017c-.354045.233615-.770133.370567-1.202077.395654l-6.065021.300403c-.229356.013421-.45545.05784-.671289.131885l-10.529876 3.663459c-.59649.21235-1.261268.175016-1.826531-.102577l-3.044219-1.465384c-.321496-.153948-.677243-.234292-1.038157-.234461h-11.31825c-.522659-.000041-1.029536-.168118-1.436247-.47625l-2.739797-2.058864c-.797853-.599591-1.922674-.629501-2.755409-.073269l-2.934939 1.963614c-.602209.404179-.95971 1.056229-.9601 1.751133v20.595966c0 1.185637 1.023955 2.146786 2.287067 2.146786h400.111859c1.263112 0 2.287067-.961149 2.287067-2.146786l-.10928-80.427574c.011218-.79596-.447698-1.532402-1.192319-1.913368-.74462-.380965-1.652688-.343903-2.35927.096293z" fill="#c1ded5"/></g><g transform="translate(152.483642 171)"><g fill="#3f3d56"><rect height="60.285634" rx="2.29" width="7.310573" x="243.844844" y="113.452145"/><rect height="19.847035" rx="1.5" width="4.10555" x=".759441" y="66.22769"/><rect height="34.546178" rx="1.69" width="4.623175" x=".610536" y="102.560739"/><rect height="34.84399" rx="1.61" width="4.403361" x=".681443" y="149.189571"/><rect height="497.324569" rx="30" width="244.702095" x="3.08521" y=".638168"/></g><rect fill="#36334a" height="6.941853" rx="2.54" width="34.170368" x="101.831121" y="15.486218"/><circle cx="145.106024" cy="18.96069" fill="#36334a" r="3.935371"/><path d="m231.907552 33.021665v432.536303c-.003915 10.731311-8.70446 19.428681-19.435771 19.42868h-175.609739c-10.7313112.000001-19.4318555-8.697369-19.4357706-19.42868v-432.536303c0-10.7340797 8.7016909-19.4357706 19.4357706-19.4357706h26.2783531v3.3752013c.0156391 8.8287488 7.1750814 15.9786748 16.0038432 15.9825709h89.3435647c4.244483 0 8.315123-1.6861143 11.316426-4.6874171 3.001302-3.0013028 4.687417-7.071943 4.687417-11.3164261v-3.353929h28.015589c10.720231.0195553 19.400335 8.7155212 19.400317 19.4357706z" fill="#fff"/><path d="m231.907552 296.719904v147.083615h-1.527735v.148906h-212.9535456v-179.694016c1.3658089-1.569421 2.7503918-3.197932 4.1537487-4.885533 29.9069909-35.971421 70.5574066-45.437584 102.0202929-46.43029 21.557252-.709076 43.015941 3.779374 63.503074 12.692458 10.820868 4.708264 27.879399 10.352702 44.804165 10.863237z" fill="#d3e8e1"/><path d="m231.907552 296.719904v147.083615h-214.4812806v-96.349234c7.6386735-1.935777 18.3046554-9.381074 31.9909055-29.951366 16.3685861-24.612025 38.6087425-31.085888 55.8221591-31.766601 11.792422-.46799 23.535563 2.581036 34.743644 8.68618 12.609091 6.856764 36.912042 15.124589 55.378623-8.87763 20.416731-26.540711 31.2728-4.651538 35.018214 6.07678 1.034917 2.971028 1.527735 5.098256 1.527735 5.098256z" fill="#c1ded5"/><rect fill="#a8d0c4" height="39.708251" rx="12" width="171.596369" x="39.159448" y="423.956485"/></g><g fill="#53c1de" transform="translate(214 119)"><path d="m511.57 180.15c-6.613333-2.266667-13.28-4.366667-20-6.3 1.106667-4.526667 2.136667-9.076667 3.09-13.65 15.14-73.51 5.24-132.73-28.57-152.22-32.42-18.7-85.44.8-139 47.39-5.28 4.6133333-10.436667 9.3466667-15.47 14.2-3.38-3.2333333-6.813333-6.4033333-10.3-9.51-56.11-49.83-112.32-70.82-146.14-51.27-32.39 18.75-42 74.42-28.35 144.09 1.333333 6.9 2.863333 13.76 4.59 20.58-7.95 2.26-15.64 4.67-23 7.24-65.79 22.89-107.81 58.89-107.81 96.18 0 38.51 45.11 77.14 113.64 100.56 5.56 1.886667 11.16 3.64 16.8 5.26-1.826667 7.333333-3.453333 14.726667-4.88 22.18-13 68.46-2.84 122.82 29.46 141.45 33.37 19.26 89.37-.54 143.89-48.2 4.31-3.77 8.63-7.77 13-11.95 5.453333 5.26 11.05 10.366667 16.79 15.32 52.82 45.45 105 63.81 137.26 45.12 33.33-19.29 44.16-77.69 30.1-148.73-1.066667-5.426667-2.31-10.963333-3.73-16.61 3.94-1.16 7.793333-2.363333 11.56-3.61 71.24-23.6 117.6-61.76 117.6-100.79 0-37.43-43.38-73.62-110.5-96.73zm-15.45 173.32c-3.4 1.13-6.88 2.21-10.44 3.27-8.685884-26.929001-19.200337-53.233509-31.47-78.73 11.802017-25.156519 21.907913-51.074384 30.25-77.58 6.35 1.84 12.53 3.78 18.47 5.83 57.51 19.79 92.59 49.06 92.59 71.62 0 24-37.89 55.21-99.4 75.59zm-25.52 50.58c6.22 31.41 7.1 59.81 3 82-3.7 19.95-11.14 33.25-20.34 38.58-19.59 11.33-61.47-3.4-106.64-42.27-5.18-4.46-10.39-9.21-15.63-14.25 18.831952-20.849321 36.234855-42.94623 52.09-66.14 28.321406-2.399519 56.444365-6.743091 84.17-13 1.266667 5.12 2.39 10.12 3.37 15zm-258.12 118.64c-19.14 6.76-34.38 6.95-43.59 1.64-19.6-11.31-27.75-55-16.63-113.5 1.333333-6.913333 2.843333-13.79 4.53-20.63 27.61099 5.928411 55.591615 9.981008 83.75 12.13 16.318921 23.112849 34.14074 45.127054 53.35 65.9-3.86 3.74-7.806667 7.376667-11.84 10.91-24.11 21.08-48.28 36-69.57 43.55zm-89.64-169.37c-30.31-10.36-55.33-23.82-72.49-38.5-15.41-13.2-23.19-26.31-23.19-36.94 0-22.63 33.74-51.5 90-71.11 7.066667-2.46 14.196667-4.703333 21.39-6.73 8.35662 26.79876 18.47534 53.015899 30.29 78.48-11.961761 25.829202-22.204064 52.420438-30.66 79.6-5.16-1.473333-10.273333-3.073333-15.34-4.8zm30.05-204.54c-11.68-59.69-3.93-104.72 15.59-116 20.79-12 66.76 5.12 115.22 48.15 3.1 2.75 6.21 5.63 9.32 8.6-19.071972 20.646216-36.754085 42.534219-52.93 65.52-27.892682 2.501326-55.594024 6.80701-82.93 12.89-1.593333-6.346667-3.016667-12.73-4.27-19.15zm268.11 66.19c-6.073333-10.493333-12.37-20.853333-18.89-31.08 19.83 2.51 38.82 5.83 56.66 9.91-5.724959 18.160131-12.363414 36.019545-19.89 53.51-5.74-10.9-11.7-21.68-17.88-32.34zm-109.36-106.47c12.923456 14.089923 25.128924 28.821925 36.57 44.14-24.473333-1.153333-48.956667-1.153333-73.45 0 12.07-15.92 24.44-30.72 36.88-44.13zm-110 106.65c-6.1 10.58-11.95 21.293333-17.55 32.14-7.73-18.33-14.34-36.36-19.74-53.77 17.73-4 36.64-7.21 56.34-9.68-6.613333 10.293333-12.97 20.73-19.07 31.31zm19.61 158.65c-19.22848-2.087439-38.337004-5.161492-57.25-9.21 5.49-17.71 12.25-36.13 20.15-54.86 5.62 10.86 11.49 21.58 17.61 32.16 6.226667 10.793333 12.716667 21.43 19.47 31.91zm91.14 75.33c-12.6-13.54-25.15-28.54-37.39-44.75 11.9.473333 24.02.71 36.36.71 12.666667 0 25.17-.28 37.51-.84-11.390855 15.574584-23.573546 30.554287-36.5 44.88zm126.69-140.35c7.916587 17.844852 14.899359 36.089513 20.92 54.66-19.147154 4.308296-38.507073 7.609496-58 9.89 6.566667-10.42 12.926667-20.963333 19.08-31.63 6.253333-10.84 12.253333-21.813333 18-32.92zm-41 19.66c-9.413333 16.346667-19.35 32.38-29.81 48.1-18.44 1.32-37.49 2-56.91 2s-38.15-.6-56.27-1.78c-10.726667-15.666667-20.856667-31.723333-30.39-48.17s-18.37-33.14-26.51-50.08c8.18-17.02 16.99-33.72 26.43-50.1 9.426667-16.373333 19.47-32.373333 30.13-48 18.49-1.4 37.43-2.13 56.59-2.13s38.22.74 56.69 2.14c10.54 15.58 20.54 31.516667 30 47.81s18.39 32.916667 26.79 49.87c-8.3 17.08-17.203333 33.846667-26.71 50.3zm54.77-296.46c20.81 12 28.9 60.4 15.83 123.87-.86 4.126667-1.793333 8.243333-2.8 12.35-27.376415-6.206286-55.13383-10.592552-83.09-13.13-16.020206-23.006441-33.56982-44.909215-52.53-65.56 4.666667-4.4933333 9.43-8.8633333 14.29-13.11 45.88-39.93 88.76-55.69 108.3-44.42z"/><path d="m311.34 221.38c22.447655 0 42.684969 13.522141 51.275314 34.26107 8.590346 20.738928 3.842001 44.610468-12.030888 60.483356-15.872888 15.872889-39.744428 20.621234-60.483356 12.030888-20.738929-8.590345-34.26107-28.827659-34.26107-51.275314-.002653-14.720328 5.8438-28.838512 16.252644-39.247356s24.527028-16.255297 39.247356-16.252644"/></g><g transform="translate(374)"><path d="m58.66 262.2s-4.75 13.05-16 14.83-17.79 4.74-17.79 4.74l26.68 17.19 14.23-1.78s1.78-18.38 7.71-22.53-14.83-12.45-14.83-12.45z" fill="#e0bda7"/><path d="m251.34 262.2s4.75 13.05 16 14.83 17.79 4.74 17.79 4.74l-26.68 17.19-14.23-1.78s-1.78-18.38-7.71-22.53 14.83-12.45 14.83-12.45z" fill="#e0bda7"/><path d="m120.476198 145.440739s-6.086198 5.299261-8.456198 12.419261c0 0-13 4.15-20.16 15.41 0 0-8.9 9.49-10.08 14.23s-14.78 33.2-14.78 33.2-19.2273634 43.65-19.5214279 46.61c0 0 19.8438455 1.09 26.68 17.79 0 0 4.1117149-4.2 10.0314279-18.15s20.16-46.25 20.16-46.25 4.74-17.78 8.89-20.75 10.67-16.6 16.6-13 45.06-.6 45.06-.6 23.1 10.64 23.68 17.75 4.74 7.71 5.33 13.64 21.251397 52.56 21.251397 52.56 4.897113 10.373319 6.087113 13.373319c0 0 13.777362-18.07258 29.56163-15.11258 0 0-2.442944-7.880739-6.179181-14.560739-3.736236-6.68-27.000959-62.97-27.000959-62.97s-2.37-8.3-4.74-10.67-20.76-21.35-27.28-21.35c0 0-3.55-8.89-7.7-10.08z" fill="#3f3d56"/><g transform="matrix(.9998477 -.01745241 .01745241 .9998477 -.939226 2.655735)"><use fill="#f2cc6c" xlink:href="#b"/><use fill="url(#a)" stroke="#f2cc6c" stroke-width="2" xlink:href="#b"/></g><path d="m3.18911669 28.9045368c-1.36105047 3.5890377-2.04157571 6.2613659-2.04157571 8.0169846 0 3.1106688 1.07307062 7.0132895 1.9228905 8.5921208 1.02499506.6360506 62.54826792.4164506 63.83655022.1497721 1.3296837-1.4712703 2.5210604-8.0218893-2.914562-8.6883577-3.6237483-.4443122-6.6340576-.8454906-9.0309278-1.2035352l-30.2203191-13.5012382c-.5042498-.2252788-1.0956496.0008719-1.3209284.5051217-.0040647.0090982-.0079932.0182566-.0117842.0274722l-1.9916583 4.8416222c-3.3546431 1.5685507-6.080639 2.352826-8.1779875 2.352826-1.7554036 0-4.19978821-.7318828-7.33315394-2.1956486l-.00000058.0000013c-1.00075443-.4675069-2.1910154-.0352244-2.65852228.9655301-.02104029.0450392-.04039403.0908473-.05802091.1373287z" fill="#f4f6f6" transform="matrix(-.92718385 -.37460659 -.37460659 .92718385 81.762182 262.071411)"/><path d="m3.18911669 28.9045368c-1.36105047 3.5890377-2.04157571 6.2613659-2.04157571 8.0169846 0 3.1106688 1.07307062 7.0132895 1.9228905 8.5921208 1.02499506.6360506 62.54826792.4164506 63.83655022.1497721 1.3296837-1.4712703 2.5210604-8.0218893-2.914562-8.6883577-3.6237483-.4443122-6.6340576-.8454906-9.0309278-1.2035352l-30.2203191-13.5012382c-.5042498-.2252788-1.0956496.0008719-1.3209284.5051217-.0040647.0090982-.0079932.0182566-.0117842.0274722l-1.9916583 4.8416222c-3.3546431 1.5685507-6.080639 2.352826-8.1779875 2.352826-1.7554036 0-4.19978821-.7318828-7.33315394-2.1956486l-.00000058.0000013c-1.00075443-.4675069-2.1910154-.0352244-2.65852228.9655301-.02104029.0450392-.04039403.0908473-.05802091.1373287z" fill="#f4f6f6" transform="matrix(.91354546 -.40673664 .40673664 .91354546 227 262.753616)"/><path d="m142.769443 49.2380469c-.6 2.86-1.486667 4.6533333-2.66 5.38-1.44.9-2.979879 1.274827-4.639879 1.614827-3.534734.885094-7.745678 1.5943119-8.100121 6.325173v11.0782509l51.279849.8563466-.799849-17.8545975c-.18223-.3116307-.435853-.5755362-.74-.77-.48285-.1904137-1.009244-.2423604-1.52-.15-3.188291.2072596-6.122354-.1563124-8.904466-1.7273034-.436193-.2255206-1.071793-.8934862-1.395534-1.2626966-.266339-.427014-.522566-1.5903473-.768681-3.49z" fill="#e0bda7"/><path d="m142.769443 49.2380469c-.6 2.86-1.486667 4.6533333-2.66 5.38-1.44.9-2.979879 1.274827-4.639879 1.614827-3.534734.885094-7.745678 1.5943119-8.100121 6.325173v11.0782509l51.279849.8563466-.799849-17.8545975c-.18223-.3116307-.435853-.5755362-.74-.77-.48285-.1904137-1.009244-.2423604-1.52-.15-3.188291.2072596-6.122354-.1563124-8.904466-1.7273034-.436193-.2255206-1.071793-.8934862-1.395534-1.2626966-.266339-.427014-.522566-1.5903473-.768681-3.49z" fill="#000" opacity=".049502"/><path d="m132.85 56.74c-2.315646-.6915666-4.713845-1.0682823-7.13-1.12-5.72-.14-11.84 1.83-15.14 6.5-2.248177 3.3708615-3.071421 7.4942754-2.29 11.47.796344 3.938489 2.58635 7.608002 5.2 10.66 1.510171 1.6043045 2.850615 3.3602865 4 5.24 1.58 3 1.63 6.59 2.06 10 1 8.12 4.46 15.75 5.83 23.82s.19 17.42-6.18 22.55c-1.07.86-2.37 1.77-2.46 3.14-.14 2.19 2.71 3.12 4.9 3.33 6.55.62 13.27 1.23 19.63-.46 2.63-.7 5.172869-1.18 7.852869-1.68 6.8-1.27 13.637131.73 20.447131 1.98 4.928154.8136 9.915145 1.218312 14.91 1.21 1.162511.103921 2.333637-.049725 3.43-.45 1.114627-.437169 1.818312-1.545271 1.74-2.74-.222192-.753858-.627589-1.440971-1.18-2-3.44-4.25-4.49-9.9-5.43-15.29l-3.15-18.11c-1.69-9.68-3.26-20.2 1.32-28.89 3.29-6.25 9.36-10.65 12.83-16.8 1.209604-1.8588486 1.755796-4.0718091 1.55-6.28-.52-3.09-3.31-5.3-6.17-6.59-5.502956-2.4685878-11.750735-2.6981274-17.42-.64-.986084 4.8848535-.537609 3.2319997-1.726243 7.23-.431651 1.5994402-1.16851 3.1003231-2.17 4.42-1.067763 1.1873248-2.372461 2.137745-3.83 2.79-3.156445 1.5433028-10.002172 2.3487971-11.66509 2.3487971s-7.183372-.5056037-8.485376-.8448616c-1.302004-.3392578-5.341553-2.4339355-6.545654-4.0363021-.662278-.4963282-1.123985-1.3548494-1.59492-2.0076334-.498293-.8310736-.872257-1.7306081-1.11-2.67-.809765-2.4459044-.809765-2.4459044-2.022717-6.08z" fill="#f2cc6c"/><path d="m126.84 171.49s-2.37 25.31368 12.45 29.606454c14.82 4.292775 1.78-21.01285 1.78-21.01285l-4.75-7.63518z" fill="#e0bda7"/><path d="m177.23 171.49s2.37 25.31368-12.45 29.606454c-14.82 4.292775-1.78-21.01285-1.78-21.01285l4.75-7.63518z" fill="#e0bda7"/><path d="m113.99 70.2375118c8.688633 72.8836762 13.03295 109.3255142 13.03295 109.3255142s2.711687-7.258395 14.592468 2.247008c1.286974 0 2.156351-8.290731.914732-12.48766 0 0-3.56015-11.364982-3.56015-19.452769 0-8.087786-6.53-46.716456-6.53-46.716456s-4.24-43.9134697-18.45-32.9156372z" fill="#000" opacity=".1"/><path d="m112.61 65.96-4.571059 6.04s3.981059 28.35 4.571059 33.09c.513335 3.420932 1.312806 6.79276 2.39 10.08 0 0 .59 14.23.59 19.56s3 14.23 3 14.23c.415777 5.040495 1.422688 10.014634 3 14.82 2.37 6.53 4.75 14.23 4.75 14.23s4.645737-6.737276 15.312549 2.167333c.891806-2.84964.399256-5.454954 0-8.186377s-4.052549-15.900956-4.052549-24.210956-6.52-48-6.52-48-4.24-45.09-18.47-33.82z" fill="#f2cc6c"/><path d="m177.000612 181.772728s-4.811071-8.006498-16 1.567272c-1.240648-6.734888 3.439767-19.333481 3.439767-20.381264s4.290233-26.064586 4.290233-26.064586 2.395666-25.054824 2.859388-32.913789c.157809-2.674485 1.703844-11.868715 2.651829-19.5868132.947984-7.7180981 9.558783-14.0556399 15.928783-8.5261624.1.0939189-4.29 35.3956996-13.17 105.9053426z" fill="#000" opacity=".1"/><path d="m195.65 64.12s3.49 20.19-4.22 45.68c-.38693 7.864972-1.17693 15.571639-2.37 23.12-1.789606 11.322542-3.742067 16.091561-4.74 24.31-.665288 5.478959-2.785017 13.285357-6.359186 23.419193 0 0-5.708492-7.341949-16.378492.958051 0 0 .11434-3.976136 1.417678-8.350269s3.56-14.216975 3.56-15.396975 4.15-28.46 4.15-28.46 1.78-26.68 3.56-35.58.59-35.57.59-35.57 6.93 1.9566667 20.79 5.87z" fill="#f2cc6c"/><path d="m132.746747 26.0349267c-1.09396-.0863145-1.569052.1123114-2.185389.5892737s-.996266 1.7162445-.99131 2.735959c.006725 1.4005597.509212 2.8395364.890006 4.1742282.337823 1.1843488.991833 2.9738967 1.299096 3.565196s1.201746 1.9834097 1.655548 2.1934794c.230963.1069155.497084.1941358.704948.14948.343628 1.8431694.637047 3.9420328 1.339098 5.6947842.812559 2.0283919 2.286605 3.8967481 3.799869 5.4477216 3.189778 3.2691989 7.272181 6.6557715 11.965029 7.3276808 2.160452.3093174 4.388723-.240195 6.371344-1.0717154 4.050475-1.6986279 7.51684-4.7695157 10.070616-8.3077047 1.130771-1.5666799 1.99777-3.2885137 2.467125-5.1647231.167637-.6700934.423845-1.8730927.768623-3.6089979.268507.0119435.502403-.0557206.701689-.2029923.861976-.6369998 1.332224-1.6307361 1.726823-2.6487525.52606-1.3571194 1.066187-2.9559777 1.311151-4.1742282.244964-1.2182506.419049-2.5272045.419049-3.7550805 0-1.2278759-.651362-2.6620202-1.76195-2.9436083-.555674-.1408906-1.043428 0-1.473793.1414993 0-5.9924938.896094-12.1615079-2.526733-17.47515897-7.328815-11.37735433-26.357327-11.62989514-34.092917-.56599705-1.654142 2.36579692-2.749164 5.24686342-2.9471 8.13620762-.222147 3.2417481.350353 6.5319597.489178 9.7634491z" fill="#e0bda7"/></g></g></svg>